<svg xmlns="http://www.w3.org/2000/svg" enable-background="new 0 0 24 24" viewBox="0 0 24 24" id="faceit">
  <path fill="#FA5E00" d="M24,2.213c0-0.1-0.1-0.2-0.1-0.2c-0.1,0-0.1,0-0.2,0.1c-2,3.095-4.099,6.191-6.098,9.387H0.209c-0.2,0-0.3,0.3-0.1,0.4c7.197,2.696,17.693,6.79,23.491,9.087c0.2,0.1,0.4-0.1,0.4-0.2V2.213L24,2.213z"></path>
  <path fill="#DA5200" d="M17.64,11.44c-0.012,0.02-0.025,0.04-0.037,0.06H0.209c-0.2,0-0.3,0.3-0.1,0.4c7.197,2.696,17.693,6.79,23.491,9.087c0.038,0.019,0.076,0.027,0.113,0.027c0.153,0,0.281-0.141,0.286-0.222L17.64,11.44L17.64,11.44z"></path>
</svg>
