<svg xmlns="http://www.w3.org/2000/svg" width="112.11883" height="20.68091" viewBox="0 0 29.664773 5.4718239">
  <g style="fill:#d70f64;fill-opacity:1">
    <path d="M177.85071 221.34814h.54158v-.50212c0-.60932.33854-1.01547 1.0155-1.01547l.33851.0677v.60932l-.37235-.0677c-.2031 0-.30464.1354-.30464.33851v.56982h.67699v.60928h-.67699v2.57255h-.67702v-2.57255h-.54158v-.60928M181.5023 223.98839c.64316 0 .98164-.47389.98164-1.04931 0-.57548-.33848-1.04936-.98164-1.04936-.64312 0-.98163.47388-.98163 1.04936 0 .57542.33851 1.04931.98163 1.04931zm0-2.70796c.88007 0 1.65862.67699 1.65862 1.65865 0 .98164-.77855 1.65859-1.65862 1.65859-.88006 0-1.65861-.67695-1.65861-1.65859 0-.98166.77855-1.65865 1.65861-1.65865zM185.11862 223.98839c.64315 0 .98163-.47389.98163-1.04931 0-.57548-.33848-1.04936-.98163-1.04936-.64313 0-.98167.47388-.98167 1.04936 0 .57542.33854 1.04931.98167 1.04931zm0-2.70796c.88006 0 1.65862.67699 1.65862 1.65865 0 .98164-.77856 1.65859-1.65862 1.65859-.8801 0-1.65862-.67695-1.65862-1.65859 0-.98166.77852-1.65865 1.65862-1.65865zM188.7349 221.88972c-.64313 0-.98837.47388-.98837 1.04936 0 .57542.34524 1.04931.98837 1.04931.57548 0 .98166-.47389.98166-1.04931 0-.57548-.40618-1.04936-.98166-1.04936zm1.59092 2.64025h-.60926l-.0677-.27078-.0339-.0338-.0339.0338c-.20305.20311-.54153.33848-.88004.33848-.88012 0-1.62481-.67695-1.62481-1.65859 0-.98166.74469-1.65865 1.62481-1.65865.33169 0 .67699.13541.88004.33848l.0339.0339.0339-.0339v-1.78836h.67696zM192.41914 223.98937c.64318 0 .98166-.47391.98166-1.04933s-.33848-1.04933-.98166-1.04933c-.64312 0-.98163.47391-.98163 1.04933s.33851 1.04933.98163 1.04933zm0-2.70795c.88013 0 1.65865.67699 1.65865 1.65862s-.77852 1.65859-1.65865 1.65859c-.88006 0-1.65859-.67696-1.65859-1.65859s.77853-1.65862 1.65859-1.65862zM194.51253 221.34918h.60859l.0676.33851.0338.0338.0338-.0338c.20287-.27084.47339-.40621.74382-.40621.13523 0 .20284 0 .33807.0677v.60929h-.40572c-.39892 0-.73024.32495-.74376.71761v1.85494h-.6762v-3.18184M197.75049 223.99535c.2231 0 .42066-.0701.58627-.21027.17208-.14658.25496-.34414.25496-.6054v-.0701h-.57994c-.40787 0-.66274.19115-.66274.49704 0 .22946.14016.38874.40145.38874zm.28679-1.44022h.55444v-.14019c0-.38236-.26129-.5608-.62449-.5608-.29321 0-.49071.1402-.5991.42699l-.60543-.12748c.13387-.54167.5991-.88578 1.21089-.88578.85391 0 1.2809.4206 1.2809 1.26817v1.99463h-.56082l-.0637-.4206c-.22304.31227-.55444.47159-.9942.47159-.56712 0-.98772-.33776-.98772-.97505 0-.65638.55441-1.05148 1.38923-1.05148z" style="fill:#d70f64;fill-opacity:1;fill-rule:evenodd;stroke:none;stroke-width:.02901917" transform="translate(-169.72201 -219.304528)"/>
    <path d="M197.75049 223.99535c.2231 0 .42066-.0701.58627-.21027.17208-.14658.25496-.34414.25496-.6054v-.0701h-.57994c-.40787 0-.66274.19115-.66274.49704 0 .22946.14016.38874.40145.38874zm.28679-1.44022h.55444v-.14019c0-.38236-.26129-.5608-.62449-.5608-.29321 0-.49071.1402-.5991.42699l-.60543-.12748c.13387-.54167.5991-.88578 1.21089-.88578.85391 0 1.2809.4206 1.2809 1.26817v1.99463h-.56082l-.0637-.4206c-.22304.31227-.55444.47159-.9942.47159-.56712 0-.98772-.33776-.98772-.97505 0-.65638.55441-1.05148 1.38923-1.05148zM173.6766 224.45359c.24211-.0765 1.94039-.76076 2.28741-.89248.0347-.0132.0445-.0573.0187-.084-.0383-.0395-.10833-.0838-.23094-.0858-.17052-.003-1.64028.46312-1.64028.46312s-.69312.11686-.77809.10272c-.085-.0142-.10998-.0708-.10998-.12748 0-.0566.0525-.12333.17995-.13749.12748-.0142.87034-.0575.99736-.13497.12826-.0783.10844-.21251.035-.23996-.10226-.0382-2.2179-.0467-3.27104-.0266-.13984.003-.47931-.005-.93314-.003.0819.5206.22893.96474.54655 1.35641.29994-.15331.63073-.25775 1.03311-.23999.28616.0126 1.5964.13491 1.86547.0499" style="fill:#d70f64;fill-opacity:1;fill-rule:evenodd;stroke:none;stroke-width:.02901917" transform="translate(-169.72201 -219.304528)"/>
    <path d="M173.6766 224.45359c.24211-.0765 1.94039-.76076 2.28741-.89248.0347-.0132.0445-.0573.0187-.084-.0383-.0395-.10833-.0838-.23094-.0858-.17052-.003-1.64028.46312-1.64028.46312s-.69312.11686-.77809.10272c-.085-.0142-.10998-.0708-.10998-.12748 0-.0566.0525-.12333.17995-.13749.12748-.0142.87034-.0575.99736-.13497.12826-.0783.10844-.21251.035-.23996-.10226-.0382-2.2179-.0467-3.27104-.0266-.13984.003-.47931-.005-.93314-.003.0819.5206.22893.96474.54655 1.35641.29994-.15331.63073-.25775 1.03311-.23999.28616.0126 1.5964.13491 1.86547.0499M171.89928 220.43479c-.18296.23201-.62185.87768-.65525 1.76877-.003.0856-.0645.15215-.1372.14971l-.27264-.00011c-.0877-.003-.15093-.11155-.12719-.21112.0867-.36326.36082-1.15534 1.17269-1.73407.0152-.0108.0317.0115.0196.0268zm4.35627 2.16413h-.26689c-.0562-1.49887-1.25783-2.70424-2.75545-2.76515v-.27809c0-.0656-.0532-.11886-.11884-.11886-.0656 0-.11883.0532-.11883.11886v.27809c-1.49765.0609-2.69928 1.26628-2.75546 2.76515h-.26695c-.0656 0-.11883.0532-.11883.11883 0 .0656.0532.11884.11883.11884h6.28242c.0656 0 .11886-.0532.11886-.11884 0-.0656-.0532-.11883-.11886-.11883z" style="fill:#d70f64;fill-opacity:1;fill-rule:evenodd;stroke:none;stroke-width:.02901917" transform="translate(-169.72201 -219.304528)"/>
    <path d="M171.89928 220.43479c-.18296.23201-.62185.87768-.65525 1.76877-.003.0856-.0645.15215-.1372.14971l-.27264-.00011c-.0877-.003-.15093-.11155-.12719-.21112.0867-.36326.36082-1.15534 1.17269-1.73407.0152-.0108.0317.0115.0196.0268zm4.35627 2.16413h-.26689c-.0562-1.49887-1.25783-2.70424-2.75545-2.76515v-.27809c0-.0656-.0532-.11886-.11884-.11886-.0656 0-.11883.0532-.11883.11886v.27809c-1.49765.0609-2.69928 1.26628-2.75546 2.76515h-.26695c-.0656 0-.11883.0532-.11883.11883 0 .0656.0532.11884.11883.11884h6.28242c.0656 0 .11886-.0532.11886-.11884 0-.0656-.0532-.11883-.11886-.11883z" style="fill:#d70f64;fill-opacity:1;fill-rule:evenodd;stroke:none;stroke-width:.02901917" transform="translate(-169.72201 -219.304528)"/>
  </g>
</svg>
