<?xml version="1.0"?><!DOCTYPE svg  PUBLIC '-//W3C//DTD SVG 1.1//EN'  'http://www.w3.org/Graphics/SVG/1.1/DTD/svg11.dtd'><svg height="512px" style="enable-background:new 0 0 512 512;" version="1.1" viewBox="0 0 512 512" width="512px" xml:space="preserve" xmlns="http://www.w3.org/2000/svg" xmlns:xlink="http://www.w3.org/1999/xlink"><g id="_x36_3-nike"><path d="M376,16H136C69.726,16,16,69.726,16,136v240c0,66.274,53.726,120,120,120h240c66.274,0,120-53.726,120-120V136   C496,69.726,442.274,16,376,16z M258.353,265.308l-85.091,34.899c-18.499,7.777-35.529,11.128-45.094,9.871   c-75.09-8.216-19.568-89.575,11.283-115.021c-17.452,27.96-17.871,54.243,5.538,64.342c17.22,5.895,35.091-0.838,55.521-5.888   l57.843-15.134l20.853-5.466l146.983-36.179L258.353,265.308z"/></g><g id="Layer_1"/></svg>